<svg width="1681" height="282" viewBox="0 0 1681 282" fill="none" xmlns="http://www.w3.org/2000/svg">
<rect x="0.999878" width="1679" height="282" fill="#333333"/>
<path d="M0.521729 138.686C380.546 144.679 88.7204 179.466 320.235 186.363C551.749 193.259 601.762 174.718 700.212 145" stroke="white" stroke-width="6"/>
<path d="M1680.13 111.372C1291.66 100.78 1590.36 74.4673 1353.73 65.1772C1117.09 55.887 1065.78 71.3977 964.842 95.9998" stroke="white" stroke-width="6"/>
<path d="M586.055 106.689C580.569 106.689 576.145 104.98 572.784 101.562C569.452 98.1438 567.786 93.3612 567.786 87.2141V52.2276C567.786 44.8741 569.237 39.244 572.138 35.3375C575.068 31.4309 579.822 29.4777 586.4 29.4777C589.991 29.4777 593.179 30.1383 595.965 31.4597C598.78 32.781 600.992 34.763 602.601 37.4057C604.209 40.0196 605.013 43.3229 605.013 47.3156V60.4141H589.933V49.2115C589.933 46.9422 589.646 45.4198 589.071 44.6443C588.497 43.84 587.606 43.4378 586.4 43.4378C584.992 43.4378 584.045 43.9549 583.556 44.989C583.068 45.9943 582.824 47.3444 582.824 49.0391V86.9987C582.824 89.0956 583.125 90.5749 583.729 91.4366C584.36 92.2984 585.251 92.7292 586.4 92.7292C587.693 92.7292 588.597 92.1978 589.114 91.135C589.66 90.0722 589.933 88.6934 589.933 86.9987V73.3401H605.186V87.6881C605.186 94.3522 603.505 99.1923 600.145 102.208C596.784 105.196 592.087 106.689 586.055 106.689ZM610.27 106V30.1671H633.537C637.415 30.1671 640.345 31.0575 642.327 32.8384C644.309 34.5906 645.63 37.061 646.291 40.2494C646.98 43.4091 647.325 47.1289 647.325 51.4089C647.325 55.5452 646.793 58.8486 645.731 61.3189C644.697 63.7892 642.729 65.4983 639.828 66.4462C642.212 66.9345 643.878 68.1266 644.826 70.0224C645.802 71.8895 646.291 74.3168 646.291 77.3041V106H631.34V76.3131C631.34 74.1013 630.88 72.7369 629.961 72.2199C629.07 71.6741 627.62 71.4012 625.609 71.4012V106H610.27ZM625.695 58.2597H629.358C631.454 58.2597 632.503 55.9761 632.503 51.4089C632.503 48.4503 632.273 46.5114 631.814 45.5922C631.354 44.673 630.492 44.2134 629.228 44.2134H625.695V58.2597ZM658.829 106V44.7304H649.824V30.1671H683.001V44.7304H673.996V106H658.829ZM694.203 106L684.854 30.124H699.288L704.846 81.7421L709.801 30.124H724.235L714.885 106H694.203ZM749.355 106V30.1671H779.688V44.8166H764.78V59.5954H779.085V73.8572H764.78V91.2212H780.679V106H749.355ZM803.73 106.689C796.808 106.689 791.81 104.966 788.736 101.519C785.691 98.072 784.169 92.5856 784.169 85.0598V77.6488H799.163V87.1279C799.163 88.8801 799.422 90.2589 799.939 91.2643C800.484 92.2409 801.418 92.7292 802.739 92.7292C804.118 92.7292 805.066 92.3271 805.583 91.5228C806.129 90.7185 806.402 89.3972 806.402 87.5588C806.402 85.2321 806.172 83.2932 805.712 81.7421C805.253 80.1622 804.448 78.6685 803.299 77.261C802.179 75.8248 800.614 74.1588 798.603 72.263L791.795 65.7999C786.711 61.0029 784.169 55.5165 784.169 49.3407C784.169 42.8777 785.662 37.9514 788.65 34.5619C791.666 31.1724 796.018 29.4777 801.705 29.4777C808.657 29.4777 813.583 31.3304 816.484 35.0359C819.414 38.7414 820.879 44.3714 820.879 51.9259H805.454V46.7124C805.454 45.6783 805.152 44.8741 804.549 44.2996C803.974 43.7251 803.184 43.4378 802.179 43.4378C800.973 43.4378 800.082 43.7825 799.508 44.4719C798.962 45.1326 798.689 45.9943 798.689 47.0571C798.689 48.1199 798.976 49.2689 799.551 50.5041C800.125 51.7392 801.26 53.1611 802.955 54.7697L811.701 63.1716C813.454 64.8377 815.062 66.6042 816.527 68.4713C817.992 70.3097 819.17 72.464 820.06 74.9343C820.951 77.3759 821.396 80.3633 821.396 83.8964C821.396 91.0201 820.075 96.6071 817.432 100.657C814.818 104.679 810.251 106.689 803.73 106.689ZM844.146 106.689C838.659 106.689 834.236 104.98 830.875 101.562C827.543 98.1438 825.877 93.3612 825.877 87.2141V52.2276C825.877 44.8741 827.328 39.244 830.229 35.3375C833.159 31.4309 837.913 29.4777 844.49 29.4777C848.081 29.4777 851.269 30.1383 854.056 31.4597C856.871 32.781 859.083 34.763 860.691 37.4057C862.3 40.0196 863.104 43.3229 863.104 47.3156V60.4141H848.024V49.2115C848.024 46.9422 847.736 45.4198 847.162 44.6443C846.587 43.84 845.697 43.4378 844.49 43.4378C843.083 43.4378 842.135 43.9549 841.647 44.989C841.158 45.9943 840.914 47.3444 840.914 49.0391V86.9987C840.914 89.0956 841.216 90.5749 841.819 91.4366C842.451 92.2984 843.341 92.7292 844.49 92.7292C845.783 92.7292 846.688 92.1978 847.205 91.135C847.751 90.0722 848.024 88.6934 848.024 86.9987V73.3401H863.276V87.6881C863.276 94.3522 861.596 99.1923 858.235 102.208C854.874 105.196 850.178 106.689 844.146 106.689ZM866.292 106L873.617 30.1671H899.34L906.536 106H892.188L891.11 93.7633H881.976L881.028 106H866.292ZM883.053 81.6559H889.947L886.629 43.0931H885.94L883.053 81.6559ZM911.189 106V30.1671H931.224C935.418 30.1671 938.736 31.1006 941.177 32.9677C943.648 34.8348 945.414 37.4918 946.477 40.9388C947.54 44.3857 948.071 48.4934 948.071 53.2616C948.071 57.8576 947.626 61.8647 946.736 65.2829C945.845 68.6724 944.251 71.3007 941.953 73.1678C939.684 75.0349 936.452 75.9684 932.258 75.9684H926.097V106H911.189ZM926.097 62.353H926.959C929.774 62.353 931.497 61.563 932.129 59.9832C932.761 58.4033 933.077 56.0766 933.077 53.0031C933.077 50.1307 932.761 47.9189 932.129 46.3677C931.526 44.7879 930.075 43.998 927.777 43.998H926.097V62.353ZM952.897 106V30.1671H983.23V44.8166H968.322V59.5954H982.627V73.8572H968.322V91.2212H984.221V106H952.897Z" fill="#5EF1B3"/>
<path d="M691.122 191.99C685.636 191.99 681.212 190.281 677.852 186.863C674.52 183.445 672.854 178.662 672.854 172.515V137.528C672.854 130.175 674.304 124.545 677.205 120.638C680.135 116.732 684.889 114.778 691.467 114.778C695.058 114.778 698.246 115.439 701.032 116.76C703.847 118.082 706.059 120.064 707.668 122.706C709.276 125.32 710.081 128.624 710.081 132.616V145.715H695V134.512C695 132.243 694.713 130.721 694.138 129.945C693.564 129.141 692.674 128.739 691.467 128.739C690.06 128.739 689.112 129.256 688.623 130.29C688.135 131.295 687.891 132.645 687.891 134.34V172.299C687.891 174.396 688.192 175.876 688.796 176.737C689.428 177.599 690.318 178.03 691.467 178.03C692.76 178.03 693.665 177.499 694.182 176.436C694.727 175.373 695 173.994 695 172.299V158.641H710.253V172.989C710.253 179.653 708.573 184.493 705.212 187.509C701.851 190.496 697.155 191.99 691.122 191.99ZM715.337 191.301V115.468H738.604C742.482 115.468 745.412 116.358 747.394 118.139C749.376 119.891 750.697 122.362 751.358 125.55C752.047 128.71 752.392 132.43 752.392 136.71C752.392 140.846 751.861 144.149 750.798 146.62C749.764 149.09 747.796 150.799 744.895 151.747C747.279 152.235 748.945 153.427 749.893 155.323C750.87 157.19 751.358 159.618 751.358 162.605V191.301H736.407V161.614C736.407 159.402 735.947 158.038 735.028 157.521C734.137 156.975 732.687 156.702 730.676 156.702V191.301H715.337ZM730.762 143.56H734.425C736.522 143.56 737.57 141.277 737.57 136.71C737.57 133.751 737.34 131.812 736.881 130.893C736.421 129.974 735.559 129.514 734.295 129.514H730.762V143.56ZM763.896 191.301V130.031H754.891V115.468H788.068V130.031H779.063V191.301H763.896ZM799.27 191.301L789.921 115.425H804.355L809.913 167.043L814.868 115.425H829.302L819.952 191.301H799.27ZM854.422 191.301V115.468H884.755V130.117H869.847V144.896H884.152V159.158H869.847V176.522H885.746V191.301H854.422ZM908.797 191.99C901.875 191.99 896.877 190.267 893.803 186.82C890.758 183.373 889.236 177.886 889.236 170.361V162.95H904.23V172.429C904.23 174.181 904.489 175.56 905.006 176.565C905.551 177.542 906.485 178.03 907.806 178.03C909.185 178.03 910.133 177.628 910.65 176.824C911.196 176.019 911.469 174.698 911.469 172.86C911.469 170.533 911.239 168.594 910.779 167.043C910.32 165.463 909.515 163.969 908.367 162.562C907.246 161.126 905.681 159.46 903.67 157.564L896.862 151.101C891.778 146.304 889.236 140.817 889.236 134.642C889.236 128.178 890.73 123.252 893.717 119.863C896.733 116.473 901.085 114.778 906.772 114.778C913.724 114.778 918.65 116.631 921.551 120.337C924.481 124.042 925.946 129.672 925.946 137.227H910.521V132.013C910.521 130.979 910.219 130.175 909.616 129.6C909.042 129.026 908.252 128.739 907.246 128.739C906.04 128.739 905.149 129.083 904.575 129.773C904.029 130.433 903.756 131.295 903.756 132.358C903.756 133.421 904.043 134.57 904.618 135.805C905.192 137.04 906.327 138.462 908.022 140.07L916.768 148.472C918.521 150.138 920.129 151.905 921.594 153.772C923.059 155.61 924.237 157.765 925.127 160.235C926.018 162.677 926.463 165.664 926.463 169.197C926.463 176.321 925.142 181.908 922.499 185.958C919.885 189.979 915.318 191.99 908.797 191.99ZM949.213 191.99C943.727 191.99 939.303 190.281 935.942 186.863C932.61 183.445 930.944 178.662 930.944 172.515V137.528C930.944 130.175 932.395 124.545 935.296 120.638C938.226 116.732 942.98 114.778 949.558 114.778C953.148 114.778 956.337 115.439 959.123 116.76C961.938 118.082 964.15 120.064 965.758 122.706C967.367 125.32 968.171 128.624 968.171 132.616V145.715H953.091V134.512C953.091 132.243 952.803 130.721 952.229 129.945C951.654 129.141 950.764 128.739 949.558 128.739C948.15 128.739 947.202 129.256 946.714 130.29C946.226 131.295 945.981 132.645 945.981 134.34V172.299C945.981 174.396 946.283 175.876 946.886 176.737C947.518 177.599 948.409 178.03 949.558 178.03C950.85 178.03 951.755 177.499 952.272 176.436C952.818 175.373 953.091 173.994 953.091 172.299V158.641H968.343V172.989C968.343 179.653 966.663 184.493 963.302 187.509C959.942 190.496 955.245 191.99 949.213 191.99ZM971.36 191.301L978.684 115.468H1004.41L1011.6 191.301H997.255L996.178 179.064H987.043L986.095 191.301H971.36ZM988.12 166.957H995.014L991.697 128.394H991.007L988.12 166.957ZM1016.26 191.301V115.468H1036.29C1040.49 115.468 1043.8 116.401 1046.24 118.268C1048.71 120.136 1050.48 122.793 1051.54 126.24C1052.61 129.687 1053.14 133.794 1053.14 138.562C1053.14 143.158 1052.69 147.165 1051.8 150.584C1050.91 153.973 1049.32 156.601 1047.02 158.469C1044.75 160.336 1041.52 161.269 1037.33 161.269H1031.16V191.301H1016.26ZM1031.16 147.654H1032.03C1034.84 147.654 1036.56 146.864 1037.2 145.284C1037.83 143.704 1038.14 141.377 1038.14 138.304C1038.14 135.431 1037.83 133.22 1037.2 131.669C1036.59 130.089 1035.14 129.299 1032.84 129.299H1031.16V147.654ZM1057.96 191.301V115.468H1088.3V130.117H1073.39V144.896H1087.69V159.158H1073.39V176.522H1089.29V191.301H1057.96Z" fill="#6B5BFF"/>
</svg>
