<svg width="1680" height="258" viewBox="0 0 1680 258" fill="none" xmlns="http://www.w3.org/2000/svg">
<rect x="-1" width="1680" height="226" fill="#333333"/>
<path d="M-135.587 137.367C320.968 144.077 -29.5516 178.314 248.592 185.647C526.736 192.98 586.784 174.533 705 145" stroke="white" stroke-width="6"/>
<path d="M1678.89 111.372C1292.81 100.78 1589.66 74.4674 1354.49 65.1773C1119.32 55.8871 1068.32 71.3978 968 96" stroke="white" stroke-width="6"/>
<path d="M590.38 106.689C584.894 106.689 580.47 104.98 577.109 101.562C573.777 98.1438 572.111 93.3612 572.111 87.2141V52.2276C572.111 44.8741 573.562 39.244 576.463 35.3375C579.393 31.4309 584.147 29.4777 590.725 29.4777C594.315 29.4777 597.504 30.1383 600.29 31.4597C603.105 32.781 605.317 34.763 606.926 37.4057C608.534 40.0196 609.338 43.3229 609.338 47.3156V60.4141H594.258V49.2115C594.258 46.9422 593.971 45.4198 593.396 44.6443C592.822 43.84 591.931 43.4378 590.725 43.4378C589.317 43.4378 588.369 43.9549 587.881 44.989C587.393 45.9943 587.149 47.3444 587.149 49.0391V86.9987C587.149 89.0956 587.45 90.5749 588.053 91.4366C588.685 92.2984 589.576 92.7292 590.725 92.7292C592.017 92.7292 592.922 92.1978 593.439 91.135C593.985 90.0722 594.258 88.6934 594.258 86.9987V73.3401H609.511V87.6881C609.511 94.3522 607.83 99.1923 604.47 102.208C601.109 105.196 596.412 106.689 590.38 106.689ZM614.595 106V30.1671H637.862C641.74 30.1671 644.67 31.0575 646.652 32.8384C648.634 34.5906 649.955 37.061 650.616 40.2494C651.305 43.4091 651.65 47.1289 651.65 51.4089C651.65 55.5452 651.118 58.8486 650.056 61.3189C649.021 63.7892 647.054 65.4983 644.153 66.4462C646.537 66.9345 648.203 68.1266 649.151 70.0224C650.127 71.8895 650.616 74.3168 650.616 77.3041V106H635.664V76.3131C635.664 74.1013 635.205 72.7369 634.286 72.2199C633.395 71.6741 631.945 71.4012 629.934 71.4012V106H614.595ZM630.02 58.2597H633.682C635.779 58.2597 636.828 55.9761 636.828 51.4089C636.828 48.4503 636.598 46.5114 636.138 45.5922C635.679 44.673 634.817 44.2134 633.553 44.2134H630.02V58.2597ZM663.154 106V44.7304H654.149V30.1671H687.326V44.7304H678.321V106H663.154ZM698.528 106L689.178 30.124H703.613L709.171 81.7421L714.126 30.124H728.56L719.21 106H698.528ZM753.68 106V30.1671H784.013V44.8166H769.105V59.5954H783.409V73.8572H769.105V91.2212H785.004V106H753.68ZM808.055 106.689C801.133 106.689 796.134 104.966 793.061 101.519C790.016 98.072 788.494 92.5856 788.494 85.0598V77.6488H803.488V87.1279C803.488 88.8801 803.746 90.2589 804.264 91.2643C804.809 92.2409 805.743 92.7292 807.064 92.7292C808.443 92.7292 809.391 92.3271 809.908 91.5228C810.454 90.7185 810.727 89.3972 810.727 87.5588C810.727 85.2321 810.497 83.2932 810.037 81.7421C809.578 80.1622 808.773 78.6685 807.624 77.261C806.504 75.8248 804.939 74.1588 802.928 72.263L796.12 65.7999C791.036 61.0029 788.494 55.5165 788.494 49.3407C788.494 42.8777 789.987 37.9514 792.975 34.5619C795.991 31.1724 800.343 29.4777 806.03 29.4777C812.981 29.4777 817.908 31.3304 820.809 35.0359C823.739 38.7414 825.204 44.3714 825.204 51.9259H809.779V46.7124C809.779 45.6783 809.477 44.8741 808.874 44.2996C808.299 43.7251 807.509 43.4378 806.504 43.4378C805.298 43.4378 804.407 43.7825 803.833 44.4719C803.287 45.1326 803.014 45.9943 803.014 47.0571C803.014 48.1199 803.301 49.2689 803.876 50.5041C804.45 51.7392 805.585 53.1611 807.28 54.7697L816.026 63.1716C817.778 64.8377 819.387 66.6042 820.852 68.4713C822.317 70.3097 823.495 72.464 824.385 74.9343C825.276 77.3759 825.721 80.3633 825.721 83.8964C825.721 91.0201 824.399 96.6071 821.757 100.657C819.143 104.679 814.576 106.689 808.055 106.689ZM848.471 106.689C842.984 106.689 838.561 104.98 835.2 101.562C831.868 98.1438 830.202 93.3612 830.202 87.2141V52.2276C830.202 44.8741 831.652 39.244 834.554 35.3375C837.484 31.4309 842.237 29.4777 848.815 29.4777C852.406 29.4777 855.594 30.1383 858.381 31.4597C861.196 32.781 863.407 34.763 865.016 37.4057C866.625 40.0196 867.429 43.3229 867.429 47.3156V60.4141H852.349V49.2115C852.349 46.9422 852.061 45.4198 851.487 44.6443C850.912 43.84 850.022 43.4378 848.815 43.4378C847.408 43.4378 846.46 43.9549 845.972 44.989C845.483 45.9943 845.239 47.3444 845.239 49.0391V86.9987C845.239 89.0956 845.541 90.5749 846.144 91.4366C846.776 92.2984 847.666 92.7292 848.815 92.7292C850.108 92.7292 851.013 92.1978 851.53 91.135C852.076 90.0722 852.349 88.6934 852.349 86.9987V73.3401H867.601V87.6881C867.601 94.3522 865.921 99.1923 862.56 102.208C859.199 105.196 854.503 106.689 848.471 106.689ZM870.617 106L877.942 30.1671H903.665L910.861 106H896.513L895.435 93.7633H886.301L885.353 106H870.617ZM887.378 81.6559H894.272L890.954 43.0931H890.265L887.378 81.6559ZM915.514 106V30.1671H935.549C939.743 30.1671 943.061 31.1006 945.502 32.9677C947.973 34.8348 949.739 37.4918 950.802 40.9388C951.865 44.3857 952.396 48.4934 952.396 53.2616C952.396 57.8576 951.951 61.8647 951.061 65.2829C950.17 68.6724 948.576 71.3007 946.278 73.1678C944.009 75.0349 940.777 75.9684 936.583 75.9684H930.422V106H915.514ZM930.422 62.353H931.284C934.099 62.353 935.822 61.563 936.454 59.9832C937.086 58.4033 937.402 56.0766 937.402 53.0031C937.402 50.1307 937.086 47.9189 936.454 46.3677C935.851 44.7879 934.4 43.998 932.102 43.998H930.422V62.353ZM957.222 106V30.1671H987.555V44.8166H972.647V59.5954H986.952V73.8572H972.647V91.2212H988.546V106H957.222Z" fill="#5EF1B3"/>
<path d="M694.8 191.99C689.313 191.99 684.89 190.281 681.529 186.863C678.197 183.444 676.531 178.662 676.531 172.515V137.528C676.531 130.175 677.982 124.545 680.883 120.638C683.813 116.731 688.567 114.778 695.145 114.778C698.735 114.778 701.924 115.439 704.71 116.76C707.525 118.082 709.737 120.064 711.345 122.706C712.954 125.32 713.758 128.623 713.758 132.616V145.715H698.678V134.512C698.678 132.243 698.39 130.72 697.816 129.945C697.241 129.141 696.351 128.738 695.145 128.738C693.737 128.738 692.789 129.255 692.301 130.289C691.812 131.295 691.568 132.645 691.568 134.34V172.299C691.568 174.396 691.87 175.875 692.473 176.737C693.105 177.599 693.996 178.03 695.145 178.03C696.437 178.03 697.342 177.498 697.859 176.436C698.405 175.373 698.678 173.994 698.678 172.299V158.641H713.93V172.989C713.93 179.653 712.25 184.493 708.889 187.509C705.528 190.496 700.832 191.99 694.8 191.99ZM719.015 191.301V115.468H742.282C746.159 115.468 749.089 116.358 751.071 118.139C753.053 119.891 754.375 122.362 755.035 125.55C755.725 128.71 756.069 132.429 756.069 136.709C756.069 140.846 755.538 144.149 754.475 146.619C753.441 149.09 751.473 150.799 748.572 151.747C750.956 152.235 752.622 153.427 753.57 155.323C754.547 157.19 755.035 159.617 755.035 162.605V191.301H740.084V161.614C740.084 159.402 739.625 158.037 738.705 157.52C737.815 156.975 736.364 156.702 734.354 156.702V191.301H719.015ZM734.44 143.56H738.102C740.199 143.56 741.248 141.277 741.248 136.709C741.248 133.751 741.018 131.812 740.558 130.893C740.099 129.974 739.237 129.514 737.973 129.514H734.44V143.56ZM767.574 191.301V130.031H758.568V115.468H791.745V130.031H782.74V191.301H767.574ZM802.948 191.301L793.598 115.425H808.032L813.59 167.043L818.545 115.425H832.98L823.63 191.301H802.948ZM858.099 191.301V115.468H888.432V130.117H873.524V144.896H887.829V159.158H873.524V176.522H889.423V191.301H858.099ZM912.475 191.99C905.552 191.99 900.554 190.266 897.481 186.819C894.436 183.373 892.913 177.886 892.913 170.36V162.949H907.908V172.428C907.908 174.181 908.166 175.559 908.683 176.565C909.229 177.541 910.163 178.03 911.484 178.03C912.863 178.03 913.811 177.628 914.328 176.823C914.873 176.019 915.146 174.698 915.146 172.859C915.146 170.533 914.916 168.594 914.457 167.043C913.997 165.463 913.193 163.969 912.044 162.562C910.924 161.125 909.358 159.459 907.348 157.563L900.54 151.1C895.456 146.303 892.913 140.817 892.913 134.641C892.913 128.178 894.407 123.252 897.394 119.862C900.411 116.473 904.762 114.778 910.45 114.778C917.401 114.778 922.327 116.631 925.229 120.336C928.158 124.042 929.623 129.672 929.623 137.226H914.198V132.013C914.198 130.979 913.897 130.175 913.294 129.6C912.719 129.026 911.929 128.738 910.924 128.738C909.717 128.738 908.827 129.083 908.252 129.772C907.707 130.433 907.434 131.295 907.434 132.358C907.434 133.42 907.721 134.569 908.295 135.805C908.87 137.04 910.005 138.462 911.699 140.07L920.446 148.472C922.198 150.138 923.807 151.905 925.272 153.772C926.737 155.61 927.914 157.765 928.805 160.235C929.695 162.676 930.14 165.664 930.14 169.197C930.14 176.321 928.819 181.908 926.176 185.958C923.563 189.979 918.995 191.99 912.475 191.99ZM952.89 191.99C947.404 191.99 942.98 190.281 939.62 186.863C936.288 183.444 934.622 178.662 934.622 172.515V137.528C934.622 130.175 936.072 124.545 938.973 120.638C941.903 116.731 946.657 114.778 953.235 114.778C956.826 114.778 960.014 115.439 962.8 116.76C965.615 118.082 967.827 120.064 969.436 122.706C971.044 125.32 971.849 128.623 971.849 132.616V145.715H956.768V134.512C956.768 132.243 956.481 130.72 955.906 129.945C955.332 129.141 954.441 128.738 953.235 128.738C951.828 128.738 950.88 129.255 950.391 130.289C949.903 131.295 949.659 132.645 949.659 134.34V172.299C949.659 174.396 949.96 175.875 950.564 176.737C951.196 177.599 952.086 178.03 953.235 178.03C954.528 178.03 955.432 177.498 955.95 176.436C956.495 175.373 956.768 173.994 956.768 172.299V158.641H972.021V172.989C972.021 179.653 970.341 184.493 966.98 187.509C963.619 190.496 958.923 191.99 952.89 191.99ZM975.037 191.301L982.362 115.468H1008.08L1015.28 191.301H1000.93L999.855 179.064H990.721L989.773 191.301H975.037ZM991.798 166.956H998.692L995.374 128.394H994.685L991.798 166.956ZM1019.93 191.301V115.468H1039.97C1044.16 115.468 1047.48 116.401 1049.92 118.268C1052.39 120.135 1054.16 122.792 1055.22 126.239C1056.28 129.686 1056.82 133.794 1056.82 138.562C1056.82 143.158 1056.37 147.165 1055.48 150.583C1054.59 153.973 1053 156.601 1050.7 158.468C1048.43 160.335 1045.2 161.269 1041 161.269H1034.84V191.301H1019.93ZM1034.84 147.654H1035.7C1038.52 147.654 1040.24 146.864 1040.87 145.284C1041.51 143.704 1041.82 141.377 1041.82 138.304C1041.82 135.431 1041.51 133.219 1040.87 131.668C1040.27 130.088 1038.82 129.298 1036.52 129.298H1034.84V147.654ZM1061.64 191.301V115.468H1091.97V130.117H1077.07V144.896H1091.37V159.158H1077.07V176.522H1092.97V191.301H1061.64Z" fill="#6B5BFF"/>
</svg>
